<mxfile host="app.diagrams.net" agent="Mozilla/5.0 (X11; Ubuntu; Linux x86_64; rv:133.0) Gecko/20100101 Firefox/133.0" version="25.0.3">
  <diagram name="Page-1" id="3HljjeonpikpDT7aXv6a">
    <mxGraphModel dx="1434" dy="774" grid="1" gridSize="10" guides="1" tooltips="1" connect="1" arrows="1" fold="1" page="1" pageScale="1" pageWidth="850" pageHeight="1100" math="0" shadow="0">
      <root>
        <mxCell id="0" />
        <mxCell id="1" parent="0" />
        <mxCell id="ynCWnTIM4ECGxfwA6KKe-1" value=".10" style="ellipse;whiteSpace=wrap;html=1;aspect=fixed;" vertex="1" parent="1">
          <mxGeometry x="383" y="200" width="80" height="80" as="geometry" />
        </mxCell>
        <mxCell id="ynCWnTIM4ECGxfwA6KKe-2" value="&lt;div&gt;Hostname: data-collection-net-ssh-01&lt;br&gt;&lt;/div&gt;&lt;div&gt;Float ip: 10.50.28.46&lt;/div&gt;&lt;div&gt;Internal IP: 192.168.0.10/24&lt;br&gt;&lt;/div&gt;&lt;div&gt;MAC: FA:16:3E:5C:75:73&lt;br&gt;&lt;/div&gt;&lt;div&gt;Interface: eth0&lt;br&gt;&lt;/div&gt;&lt;div&gt;Open Ports: 22,23,80&lt;br&gt;&lt;/div&gt;&lt;div&gt;Creds: net1_student16:password16&lt;/div&gt;" style="text;html=1;align=center;verticalAlign=middle;resizable=0;points=[];autosize=1;strokeColor=none;fillColor=none;" vertex="1" parent="1">
          <mxGeometry x="463" y="160" width="220" height="110" as="geometry" />
        </mxCell>
        <mxCell id="ynCWnTIM4ECGxfwA6KKe-3" value="T5" style="text;html=1;align=center;verticalAlign=middle;resizable=0;points=[];autosize=1;strokeColor=none;fillColor=none;" vertex="1" parent="1">
          <mxGeometry x="405" y="200" width="40" height="30" as="geometry" />
        </mxCell>
        <mxCell id="ynCWnTIM4ECGxfwA6KKe-4" value="" style="endArrow=none;html=1;rounded=0;" edge="1" parent="1">
          <mxGeometry width="50" height="50" relative="1" as="geometry">
            <mxPoint x="30" y="390" as="sourcePoint" />
            <mxPoint x="840" y="390" as="targetPoint" />
          </mxGeometry>
        </mxCell>
        <mxCell id="ynCWnTIM4ECGxfwA6KKe-5" value="" style="endArrow=none;html=1;rounded=0;entryX=0.5;entryY=1;entryDx=0;entryDy=0;" edge="1" parent="1" target="ynCWnTIM4ECGxfwA6KKe-1">
          <mxGeometry width="50" height="50" relative="1" as="geometry">
            <mxPoint x="425" y="388" as="sourcePoint" />
            <mxPoint x="425" y="318" as="targetPoint" />
          </mxGeometry>
        </mxCell>
        <mxCell id="ynCWnTIM4ECGxfwA6KKe-6" value="192.168.0.0/24" style="text;html=1;align=center;verticalAlign=middle;resizable=0;points=[];autosize=1;strokeColor=none;fillColor=none;" vertex="1" parent="1">
          <mxGeometry x="291" y="367" width="100" height="30" as="geometry" />
        </mxCell>
        <mxCell id="ynCWnTIM4ECGxfwA6KKe-7" value="(.1-.254)" style="text;html=1;align=center;verticalAlign=middle;resizable=0;points=[];autosize=1;strokeColor=none;fillColor=none;" vertex="1" parent="1">
          <mxGeometry x="463" y="365" width="70" height="30" as="geometry" />
        </mxCell>
        <mxCell id="ynCWnTIM4ECGxfwA6KKe-8" value=".20" style="ellipse;whiteSpace=wrap;html=1;aspect=fixed;" vertex="1" parent="1">
          <mxGeometry x="240" y="390" width="80" height="80" as="geometry" />
        </mxCell>
        <mxCell id="ynCWnTIM4ECGxfwA6KKe-9" value=".30" style="ellipse;whiteSpace=wrap;html=1;aspect=fixed;" vertex="1" parent="1">
          <mxGeometry x="480" y="390" width="80" height="80" as="geometry" />
        </mxCell>
        <mxCell id="ynCWnTIM4ECGxfwA6KKe-10" value="&lt;div&gt;Hostname: data-collection-net-ssh-02&lt;br&gt;&lt;/div&gt;&lt;div&gt;Float ip: UNK&lt;br&gt;&lt;/div&gt;&lt;div&gt;Internal IP: 192.168.0.20/24&lt;br&gt;&lt;/div&gt;&lt;div&gt;MAC:FA:16:3E:2A:2F:09&lt;br&gt;&lt;/div&gt;&lt;div&gt;Interface:eth0&lt;br&gt;&lt;/div&gt;&lt;div&gt;Open Ports: 21, 80,1111,2222,3333&lt;br&gt;&lt;/div&gt;&lt;div&gt;Creds:net1_student16:password16&lt;br&gt;&lt;/div&gt;" style="text;html=1;align=center;verticalAlign=middle;resizable=0;points=[];autosize=1;strokeColor=none;fillColor=none;" vertex="1" parent="1">
          <mxGeometry x="171" y="470" width="220" height="110" as="geometry" />
        </mxCell>
        <mxCell id="ynCWnTIM4ECGxfwA6KKe-12" value="&lt;div&gt;Hostname: UNK&lt;br&gt;&lt;/div&gt;&lt;div&gt;Float ip: UNK&lt;br&gt;&lt;/div&gt;&lt;div&gt;Internal IP: 192.168.0.30/24&lt;br&gt;&lt;/div&gt;&lt;div&gt;MAC:UNK&lt;br&gt;&lt;/div&gt;&lt;div&gt;Interface:UNK&lt;br&gt;&lt;/div&gt;&lt;div&gt;Open Ports: 80,4444&lt;br&gt;&lt;/div&gt;&lt;div&gt;Creds:UNK&lt;br&gt;&lt;/div&gt;" style="text;html=1;align=center;verticalAlign=middle;resizable=0;points=[];autosize=1;strokeColor=none;fillColor=none;" vertex="1" parent="1">
          <mxGeometry x="435" y="470" width="170" height="110" as="geometry" />
        </mxCell>
        <mxCell id="ynCWnTIM4ECGxfwA6KKe-13" value=".40" style="ellipse;whiteSpace=wrap;html=1;aspect=fixed;" vertex="1" parent="1">
          <mxGeometry x="730" y="390" width="80" height="80" as="geometry" />
        </mxCell>
        <mxCell id="ynCWnTIM4ECGxfwA6KKe-15" value="&lt;div&gt;Hostname: UNK&lt;br&gt;&lt;/div&gt;&lt;div&gt;Float ip: UNK&lt;br&gt;&lt;/div&gt;&lt;div&gt;Internal IP: 192.168.0.40/24&lt;br&gt;&lt;/div&gt;&lt;div&gt;MAC:UNK&lt;br&gt;&lt;/div&gt;&lt;div&gt;Interface:UNK&lt;br&gt;&lt;/div&gt;&lt;div&gt;Open Ports: 80&lt;br&gt;&lt;/div&gt;&lt;div&gt;Creds:UNK&lt;br&gt;&lt;/div&gt;" style="text;html=1;align=center;verticalAlign=middle;resizable=0;points=[];autosize=1;strokeColor=none;fillColor=none;" vertex="1" parent="1">
          <mxGeometry x="680" y="470" width="170" height="110" as="geometry" />
        </mxCell>
        <mxCell id="ynCWnTIM4ECGxfwA6KKe-16" value="&lt;div&gt;has access to 172.16.0.0/24 net&lt;/div&gt;&lt;div&gt;has alternate ssh port&lt;br&gt;&lt;/div&gt;" style="text;html=1;align=center;verticalAlign=middle;resizable=0;points=[];autosize=1;strokeColor=none;fillColor=none;" vertex="1" parent="1">
          <mxGeometry x="665" y="573" width="190" height="40" as="geometry" />
        </mxCell>
        <mxCell id="ynCWnTIM4ECGxfwA6KKe-17" value=".50" style="ellipse;whiteSpace=wrap;html=1;aspect=fixed;" vertex="1" parent="1">
          <mxGeometry x="234" y="780" width="80" height="80" as="geometry" />
        </mxCell>
        <mxCell id="ynCWnTIM4ECGxfwA6KKe-18" value="&lt;div&gt;Hostname: UNK&lt;br&gt;&lt;/div&gt;&lt;div&gt;Float ip: UNK&lt;br&gt;&lt;/div&gt;&lt;div&gt;Internal IP: 192.168.0.50&lt;br&gt;&lt;/div&gt;&lt;div&gt;MAC:UNK&lt;br&gt;&lt;/div&gt;&lt;div&gt;Interface:UNK&lt;br&gt;&lt;/div&gt;&lt;div&gt;Open Ports: 21,80&lt;br&gt;&lt;/div&gt;&lt;div&gt;Creds:UNK&lt;br&gt;&lt;/div&gt;" style="text;html=1;align=center;verticalAlign=middle;resizable=0;points=[];autosize=1;strokeColor=none;fillColor=none;" vertex="1" parent="1">
          <mxGeometry x="205" y="860" width="150" height="110" as="geometry" />
        </mxCell>
      </root>
    </mxGraphModel>
  </diagram>
</mxfile>
